<svg xmlns="http://www.w3.org/2000/svg" viewBox="0 0 640 480" width="640" height="480">
  <defs>
    <radialGradient id="glow" cx="30%" cy="20%" r="85%">
      <stop offset="0%" stop-color="#9bb0c9" stop-opacity="0.5"/>
      <stop offset="45%" stop-color="#33456a" stop-opacity="0.2"/>
      <stop offset="100%" stop-color="#0d1524" stop-opacity="0"/>
    </radialGradient>
    <linearGradient id="base" x1="0" y1="0" x2="1" y2="1">
      <stop offset="0%" stop-color="#1c2942"/>
      <stop offset="100%" stop-color="#0d1524"/>
    </linearGradient>
  </defs>
  <rect width="640" height="480" fill="url(#base)"/>
  <rect width="640" height="480" fill="url(#glow)"/>
  <line x1="0" y1="0" x2="0" y2="480" stroke="#ffffff" stroke-opacity="0.035"/><line x1="40" y1="0" x2="40" y2="480" stroke="#ffffff" stroke-opacity="0.035"/><line x1="80" y1="0" x2="80" y2="480" stroke="#ffffff" stroke-opacity="0.035"/><line x1="120" y1="0" x2="120" y2="480" stroke="#ffffff" stroke-opacity="0.035"/><line x1="160" y1="0" x2="160" y2="480" stroke="#ffffff" stroke-opacity="0.035"/><line x1="200" y1="0" x2="200" y2="480" stroke="#ffffff" stroke-opacity="0.035"/><line x1="240" y1="0" x2="240" y2="480" stroke="#ffffff" stroke-opacity="0.035"/><line x1="280" y1="0" x2="280" y2="480" stroke="#ffffff" stroke-opacity="0.035"/><line x1="320" y1="0" x2="320" y2="480" stroke="#ffffff" stroke-opacity="0.035"/><line x1="360" y1="0" x2="360" y2="480" stroke="#ffffff" stroke-opacity="0.035"/><line x1="400" y1="0" x2="400" y2="480" stroke="#ffffff" stroke-opacity="0.035"/><line x1="440" y1="0" x2="440" y2="480" stroke="#ffffff" stroke-opacity="0.035"/><line x1="480" y1="0" x2="480" y2="480" stroke="#ffffff" stroke-opacity="0.035"/><line x1="520" y1="0" x2="520" y2="480" stroke="#ffffff" stroke-opacity="0.035"/><line x1="560" y1="0" x2="560" y2="480" stroke="#ffffff" stroke-opacity="0.035"/><line x1="600" y1="0" x2="600" y2="480" stroke="#ffffff" stroke-opacity="0.035"/><line x1="640" y1="0" x2="640" y2="480" stroke="#ffffff" stroke-opacity="0.035"/><line x1="0" y1="0" x2="640" y2="0" stroke="#ffffff" stroke-opacity="0.035"/><line x1="0" y1="40" x2="640" y2="40" stroke="#ffffff" stroke-opacity="0.035"/><line x1="0" y1="80" x2="640" y2="80" stroke="#ffffff" stroke-opacity="0.035"/><line x1="0" y1="120" x2="640" y2="120" stroke="#ffffff" stroke-opacity="0.035"/><line x1="0" y1="160" x2="640" y2="160" stroke="#ffffff" stroke-opacity="0.035"/><line x1="0" y1="200" x2="640" y2="200" stroke="#ffffff" stroke-opacity="0.035"/><line x1="0" y1="240" x2="640" y2="240" stroke="#ffffff" stroke-opacity="0.035"/><line x1="0" y1="280" x2="640" y2="280" stroke="#ffffff" stroke-opacity="0.035"/><line x1="0" y1="320" x2="640" y2="320" stroke="#ffffff" stroke-opacity="0.035"/><line x1="0" y1="360" x2="640" y2="360" stroke="#ffffff" stroke-opacity="0.035"/><line x1="0" y1="400" x2="640" y2="400" stroke="#ffffff" stroke-opacity="0.035"/><line x1="0" y1="440" x2="640" y2="440" stroke="#ffffff" stroke-opacity="0.035"/><line x1="0" y1="480" x2="640" y2="480" stroke="#ffffff" stroke-opacity="0.035"/>
  <g transform="translate(380,30) scale(10)" fill="none" stroke="#9bb0c9" stroke-opacity="0.75" stroke-width="0.22">
    <path d="M12 3 20 7.5v9L12 21 4 16.5v-9Z" /><path d="M4 7.5 12 12l8-4.5" /><path d="M12 12v9" />
  </g>
</svg>